<svg width="135" height="26" viewBox="0 0 135 26" fill="none" xmlns="http://www.w3.org/2000/svg">
<path d="M5.01 25V15.37L0.27 0.699998H4.92L7.53 9.25L9.96 0.699998H14.46L9.78 15.37V25H5.01ZM22.8776 25.33C21.0976 25.33 19.6876 25.01 18.6476 24.37C17.6076 23.73 16.8576 22.82 16.3976 21.64C15.9576 20.44 15.7376 19.01 15.7376 17.35V8.29C15.7376 6.63 15.9576 5.21 16.3976 4.03C16.8576 2.85 17.6076 1.95 18.6476 1.33C19.6876 0.709999 21.0976 0.399998 22.8776 0.399998C24.6776 0.399998 26.0976 0.719998 27.1376 1.36C28.1976 1.98 28.9476 2.88 29.3876 4.06C29.8476 5.22 30.0776 6.63 30.0776 8.29V17.35C30.0776 19.01 29.8476 20.44 29.3876 21.64C28.9476 22.82 28.1976 23.73 27.1376 24.37C26.0976 25.01 24.6776 25.33 22.8776 25.33ZM22.8776 21.76C23.5176 21.76 23.9876 21.62 24.2876 21.34C24.5876 21.04 24.7876 20.65 24.8876 20.17C24.9876 19.67 25.0376 19.14 25.0376 18.58V7.09C25.0376 6.53 24.9876 6.01 24.8876 5.53C24.7876 5.05 24.5876 4.67 24.2876 4.39C23.9876 4.09 23.5176 3.94 22.8776 3.94C22.2776 3.94 21.8276 4.09 21.5276 4.39C21.2276 4.67 21.0276 5.05 20.9276 5.53C20.8276 6.01 20.7776 6.53 20.7776 7.09V18.58C20.7776 19.14 20.8176 19.67 20.8976 20.17C20.9976 20.65 21.1976 21.04 21.4976 21.34C21.7976 21.62 22.2576 21.76 22.8776 21.76ZM40.2227 25.33C38.3827 25.33 36.9527 25.02 35.9327 24.4C34.9127 23.76 34.1927 22.85 33.7727 21.67C33.3727 20.47 33.1727 19.02 33.1727 17.32V0.699998H38.0627V18.01C38.0627 18.61 38.1027 19.2 38.1827 19.78C38.2827 20.36 38.4827 20.83 38.7827 21.19C39.1027 21.55 39.5827 21.73 40.2227 21.73C40.8827 21.73 41.3627 21.55 41.6627 21.19C41.9827 20.83 42.1827 20.36 42.2627 19.78C42.3427 19.2 42.3827 18.61 42.3827 18.01V0.699998H47.2727V17.32C47.2727 19.02 47.0627 20.47 46.6427 21.67C46.2427 22.85 45.5327 23.76 44.5127 24.4C43.4927 25.02 42.0627 25.33 40.2227 25.33ZM50.7265 25V0.699998H57.0265C58.6665 0.699998 60.0665 0.889999 61.2265 1.27C62.4065 1.63 63.3065 2.28 63.9265 3.22C64.5665 4.16 64.8865 5.46 64.8865 7.12C64.8865 8.12 64.7965 9.01 64.6165 9.79C64.4565 10.55 64.1565 11.22 63.7165 11.8C63.2965 12.36 62.6965 12.81 61.9165 13.15L65.2765 25H60.2065L57.4165 13.99H55.6765V25H50.7265ZM55.6765 11.05H57.1165C57.9165 11.05 58.5465 10.92 59.0065 10.66C59.4665 10.4 59.7865 10.01 59.9665 9.49C60.1665 8.95 60.2665 8.29 60.2665 7.51C60.2665 6.39 60.0565 5.54 59.6365 4.96C59.2365 4.36 58.4765 4.06 57.3565 4.06H55.6765V11.05Z" fill="#A276FF"/>
<path d="M68.1867 25V0.699998H73.5567V21.37H79.1367V25H68.1867ZM89.4166 25.36C87.5966 25.36 86.1566 25.04 85.0966 24.4C84.0366 23.76 83.2766 22.84 82.8166 21.64C82.3566 20.44 82.1266 19.01 82.1266 17.35V8.32C82.1266 6.64 82.3566 5.21 82.8166 4.03C83.2766 2.85 84.0366 1.95 85.0966 1.33C86.1566 0.689999 87.5966 0.369999 89.4166 0.369999C91.2566 0.369999 92.7066 0.689999 93.7666 1.33C94.8466 1.95 95.6166 2.85 96.0766 4.03C96.5366 5.21 96.7666 6.64 96.7666 8.32V17.35C96.7666 19.01 96.5366 20.44 96.0766 21.64C95.6166 22.84 94.8466 23.76 93.7666 24.4C92.7066 25.04 91.2566 25.36 89.4166 25.36ZM89.4166 21.55C89.9766 21.55 90.3866 21.41 90.6466 21.13C90.9066 20.85 91.0766 20.49 91.1566 20.05C91.2366 19.61 91.2766 19.16 91.2766 18.7V7C91.2766 6.52 91.2366 6.07 91.1566 5.65C91.0766 5.21 90.9066 4.85 90.6466 4.57C90.3866 4.29 89.9766 4.15 89.4166 4.15C88.8966 4.15 88.5066 4.29 88.2466 4.57C87.9866 4.85 87.8166 5.21 87.7366 5.65C87.6566 6.07 87.6166 6.52 87.6166 7V18.7C87.6166 19.16 87.6466 19.61 87.7066 20.05C87.7866 20.49 87.9466 20.85 88.1866 21.13C88.4466 21.41 88.8566 21.55 89.4166 21.55ZM107.715 25.36C106.035 25.36 104.705 25.01 103.725 24.31C102.765 23.61 102.075 22.63 101.655 21.37C101.255 20.09 101.055 18.62 101.055 16.96V8.8C101.055 7.08 101.275 5.59 101.715 4.33C102.155 3.07 102.905 2.1 103.965 1.42C105.045 0.719999 106.505 0.369999 108.345 0.369999C110.145 0.369999 111.555 0.669999 112.575 1.27C113.615 1.87 114.355 2.7 114.795 3.76C115.235 4.82 115.455 6.06 115.455 7.48V9.04H110.205V7.06C110.205 6.54 110.165 6.06 110.085 5.62C110.025 5.18 109.865 4.83 109.605 4.57C109.365 4.29 108.965 4.15 108.405 4.15C107.825 4.15 107.405 4.31 107.145 4.63C106.885 4.93 106.715 5.31 106.635 5.77C106.575 6.23 106.545 6.71 106.545 7.21V18.46C106.545 19 106.595 19.51 106.695 19.99C106.815 20.45 107.015 20.83 107.295 21.13C107.595 21.41 108.015 21.55 108.555 21.55C109.115 21.55 109.545 21.4 109.845 21.1C110.145 20.8 110.355 20.41 110.475 19.93C110.595 19.45 110.655 18.94 110.655 18.4V15.55H108.465V12.4H115.485V25H111.945L111.645 22.99C111.325 23.67 110.855 24.24 110.235 24.7C109.615 25.14 108.775 25.36 107.715 25.36ZM127.156 25.36C125.336 25.36 123.896 25.04 122.836 24.4C121.776 23.76 121.016 22.84 120.556 21.64C120.096 20.44 119.866 19.01 119.866 17.35V8.32C119.866 6.64 120.096 5.21 120.556 4.03C121.016 2.85 121.776 1.95 122.836 1.33C123.896 0.689999 125.336 0.369999 127.156 0.369999C128.996 0.369999 130.446 0.689999 131.506 1.33C132.586 1.95 133.356 2.85 133.816 4.03C134.276 5.21 134.506 6.64 134.506 8.32V17.35C134.506 19.01 134.276 20.44 133.816 21.64C133.356 22.84 132.586 23.76 131.506 24.4C130.446 25.04 128.996 25.36 127.156 25.36ZM127.156 21.55C127.716 21.55 128.126 21.41 128.386 21.13C128.646 20.85 128.816 20.49 128.896 20.05C128.976 19.61 129.016 19.16 129.016 18.7V7C129.016 6.52 128.976 6.07 128.896 5.65C128.816 5.21 128.646 4.85 128.386 4.57C128.126 4.29 127.716 4.15 127.156 4.15C126.636 4.15 126.246 4.29 125.986 4.57C125.726 4.85 125.556 5.21 125.476 5.65C125.396 6.07 125.356 6.52 125.356 7V18.7C125.356 19.16 125.386 19.61 125.446 20.05C125.526 20.49 125.686 20.85 125.926 21.13C126.186 21.41 126.596 21.55 127.156 21.55Z" fill="white"/>
</svg>
